<svg width="180" height="59" viewBox="0 0 180 59" fill="none" xmlns="http://www.w3.org/2000/svg">
<path d="M58 11.4999H66.4036C67.5262 11.414 68.6543 11.5655 69.7145 11.9445C70.7746 12.3236 71.7429 12.9217 72.5562 13.6999C74.0406 15.5083 74.7746 17.8167 74.6071 20.1499V37.8499C74.7746 40.183 74.0406 42.4915 72.5562 44.2999C71.7429 45.078 70.7746 45.6762 69.7145 46.0552C68.6543 46.4343 67.5262 46.5858 66.4036 46.4999H58V11.4999ZM66.3036 41.4999C66.6867 41.5241 67.0705 41.4652 67.4287 41.3271C67.7869 41.189 68.1109 40.975 68.3785 40.6999C68.9294 39.9506 69.1877 39.0261 69.1048 38.0999V19.8999C69.1877 18.9737 68.9294 18.0491 68.3785 17.2999C68.1109 17.0247 67.7869 16.8108 67.4287 16.6727C67.0705 16.5346 66.6867 16.4756 66.3036 16.4999H63.5024V41.4999H66.3036ZM78.3087 11.4999H83.8111V46.4999H78.3087V11.4999ZM87.9128 11.4999H102.919V16.4999H93.4152V25.7499H100.968V30.7499H93.4152V41.4999H102.919V46.4999H87.9128V11.4999ZM113.874 46.9999C112.753 47.0764 111.629 46.9129 110.577 46.5204C109.524 46.1279 108.568 45.5154 107.771 44.7239C106.264 42.8969 105.512 40.5629 105.67 38.1999V19.7999C105.512 17.4369 106.264 15.1028 107.771 13.2759C108.568 12.4847 109.525 11.8726 110.577 11.4804C111.629 11.0883 112.753 10.9251 113.874 11.0019C114.994 10.9249 116.118 11.0877 117.171 11.4795C118.223 11.8713 119.18 12.483 119.977 13.2739C121.484 15.1008 122.236 17.4349 122.078 19.7979V22.7979H116.875V19.4479C116.875 17.1479 115.925 15.9979 114.024 15.9979C112.123 15.9979 111.173 17.1486 111.173 19.4499V38.5999C111.173 40.8665 112.123 41.9999 114.024 41.9999C115.925 41.9999 116.875 40.8665 116.875 38.5999V31.7499H114.124V26.7499H122.078V38.1999C122.236 40.5629 121.484 42.8969 119.977 44.7239C119.18 45.5154 118.224 46.1279 117.171 46.5204C116.119 46.9129 114.995 47.0764 113.874 46.9999ZM133.582 46.9999C132.445 47.0758 131.304 46.9102 130.235 46.5137C129.166 46.1173 128.193 45.4991 127.38 44.6999C125.849 42.8927 125.078 40.563 125.229 38.1999V19.7999C125.078 17.4367 125.849 15.1071 127.38 13.2999C128.193 12.5006 129.166 11.8824 130.235 11.486C131.304 11.0896 132.445 10.9239 133.582 10.9999C134.72 10.9239 135.861 11.0896 136.93 11.486C137.999 11.8824 138.972 12.5006 139.785 13.2999C141.316 15.1071 142.087 17.4367 141.936 19.7999V38.1999C142.087 40.563 141.316 42.8927 139.785 44.6999C138.972 45.4991 137.999 46.1173 136.93 46.5137C135.861 46.9102 134.72 47.0758 133.582 46.9999ZM133.582 41.9999C135.483 41.9999 136.434 40.8499 136.434 38.5499V19.4499C136.434 17.1499 135.483 15.9999 133.582 15.9999C131.682 15.9999 130.731 17.1499 130.731 19.4499V38.5499C130.731 40.8499 131.682 41.9999 133.582 41.9999ZM153.641 11.4999H161.945C163.058 11.4011 164.18 11.525 165.245 11.8643C166.31 12.2035 167.296 12.7514 168.147 13.4759C169.578 15.1626 170.279 17.3481 170.098 19.5519V20.9519C170.158 22.467 169.858 23.9747 169.224 25.3519C168.659 26.4665 167.707 27.3369 166.547 27.7999V27.8999C169.281 28.8332 170.648 31.2665 170.648 35.1999V38.1999C170.727 39.3192 170.579 40.4427 170.214 41.5038C169.849 42.5648 169.274 43.5415 168.523 44.3759C167.68 45.1289 166.695 45.7049 165.625 46.0698C164.555 46.4346 163.422 46.5809 162.295 46.4999H153.641V11.4999ZM161.294 25.7499C161.743 25.7845 162.195 25.7269 162.621 25.5807C163.047 25.4346 163.438 25.2029 163.771 24.8999C164.4 24.0899 164.695 23.0702 164.596 22.0499V20.0999C164.677 19.134 164.439 18.1683 163.919 17.3499C163.656 17.0526 163.327 16.8209 162.958 16.6733C162.589 16.5257 162.191 16.4664 161.795 16.4999H159.143V25.7499H161.294ZM162.295 41.4999C162.688 41.5319 163.083 41.4792 163.455 41.3453C163.826 41.2114 164.164 40.9995 164.446 40.7239C164.99 39.9435 165.238 38.9947 165.146 38.0479V34.9999C165.265 33.8289 164.973 32.6529 164.32 31.6739C163.957 31.3354 163.526 31.0779 163.057 30.9186C162.587 30.7592 162.088 30.7017 161.594 30.7499H159.143V41.4999H162.295ZM173.85 41.1999H179.152V46.4999H173.85V41.1999Z" fill="#434343"/>
<rect width="11.4286" height="58.7143" fill="black"/>
<rect x="20.5714" y="10.4653" width="11.4286" height="37.5119" fill="#6A00F0"/>
</svg>
