<svg width="548" height="522" viewBox="0 0 548 522" fill="none" xmlns="http://www.w3.org/2000/svg">
<path d="M547.876 475.457H38V475.763H547.876V475.457Z" fill="#EBEBEB"/>
<path d="M496.786 491.875H463.033V492.181H496.786V491.875Z" fill="#EBEBEB"/>
<path d="M375.742 494.731H366.87V495.037H375.742V494.731Z" fill="#EBEBEB"/>
<path d="M462.013 482.494H442.433V482.8H462.013V482.494Z" fill="#EBEBEB"/>
<path d="M135.59 484.125H91.537V484.431H135.59V484.125Z" fill="#EBEBEB"/>
<path d="M151.09 484.125H144.666V484.431H151.09V484.125Z" fill="#EBEBEB"/>
<path d="M267.648 488.51H172.097V488.816H267.648V488.51Z" fill="#EBEBEB"/>
<path d="M292.938 521.55C402.141 521.55 490.668 516.391 490.668 510.027C490.668 503.663 402.141 498.504 292.938 498.504C183.735 498.504 95.2082 503.663 95.2082 510.027C95.2082 516.391 183.735 521.55 292.938 521.55Z" fill="#EFEFEF"/>
<path d="M467.723 487.491C468.743 485.757 467.315 483.208 465.276 483.106C466.194 480.658 465.276 477.599 463.236 475.967C462.93 475.764 462.625 475.56 462.319 475.56C462.013 475.56 461.605 475.764 461.401 475.967C459.463 477.293 457.628 478.721 455.69 480.046C455.282 480.352 454.772 480.658 454.569 481.168C453.447 483.412 457.628 486.267 455.894 488.204C455.384 488.714 454.569 488.816 453.957 489.224C452.631 490.04 452.427 491.978 451.815 493.405C451.203 494.833 448.96 496.057 448.144 494.629C448.756 493.201 446.92 491.978 445.391 491.876C443.861 491.672 442.23 491.57 441.414 490.142C439.272 492.08 434.377 486.777 434.479 484.635C432.746 484.737 431.522 486.471 431.114 488.103C430.706 489.836 430.91 491.672 430.91 493.405C430.808 496.872 429.789 500.238 429.789 503.705C429.789 506.356 430.91 509.415 433.358 510.435C434.581 510.945 435.907 510.945 437.131 510.945C446.411 510.843 455.792 510.843 465.072 510.741C465.786 510.741 466.398 510.741 467.01 510.435C468.233 509.823 468.539 508.09 468.641 506.662C469.151 500.543 469.661 494.527 470.171 488.408C469.457 488.204 468.641 487.899 467.723 487.491Z" fill="#6A00F0"/>
<path opacity="0.3" d="M467.723 487.491C468.743 485.757 467.315 483.208 465.276 483.106C466.194 480.658 465.276 477.599 463.236 475.967C462.93 475.764 462.625 475.56 462.319 475.56C462.013 475.56 461.605 475.764 461.401 475.967C459.463 477.293 457.628 478.721 455.69 480.046C455.282 480.352 454.772 480.658 454.569 481.168C453.447 483.412 457.628 486.267 455.894 488.204C455.384 488.714 454.569 488.816 453.957 489.224C452.631 490.04 452.427 491.978 451.815 493.405C451.203 494.833 448.96 496.057 448.144 494.629C448.756 493.201 446.92 491.978 445.391 491.876C443.861 491.672 442.23 491.57 441.414 490.142C439.272 492.08 434.377 486.777 434.479 484.635C432.746 484.737 431.522 486.471 431.114 488.103C430.706 489.836 430.91 491.672 430.91 493.405C430.808 496.872 429.789 500.238 429.789 503.705C429.789 506.356 430.91 509.415 433.358 510.435C434.581 510.945 435.907 510.945 437.131 510.945C446.411 510.843 455.792 510.843 465.072 510.741C465.786 510.741 466.398 510.741 467.01 510.435C468.233 509.823 468.539 508.09 468.641 506.662C469.151 500.543 469.661 494.527 470.171 488.408C469.457 488.204 468.641 487.899 467.723 487.491Z" fill="white"/>
<path d="M469.355 457.918H466.296H457.628H454.467H445.799H442.637H433.97H430.808H425.914L426.321 462.303L426.627 465.464L427.239 473.622L427.647 478.313L428.157 484.534L428.361 487.185L428.463 488.001L428.769 491.162L429.075 495.445L429.279 498.096L429.483 500.85L429.789 504.011L429.993 506.356L430.197 509.008L430.298 510.129H436.009H440.802H447.736H452.529H459.463H464.256H469.967L470.069 509.008L470.273 506.356L470.477 503.909L470.783 500.748L470.987 497.994L471.191 495.343L471.496 491.06L471.802 487.899L471.904 487.083L472.108 484.432L472.618 478.211L473.026 473.52L473.638 465.362L473.944 462.201L474.352 457.816H469.355V457.918ZM472.006 460.875L471.191 460.06H472.108L472.006 460.875ZM471.802 463.527L471.7 464.547L467.825 468.422L463.338 463.935L467.315 459.958H468.233L471.802 463.527ZM470.681 477.395L467.825 480.251L463.338 475.764L467.825 471.277L470.885 474.336L470.681 477.395ZM429.381 474.438L432.44 471.379L436.927 475.866L432.44 480.353L429.585 477.497L429.381 474.438ZM466.398 469.849L461.911 474.336L457.424 469.849L461.911 465.362L466.398 469.849ZM459.361 459.958H464.46L461.911 462.507L459.361 459.958ZM460.483 475.764L455.996 480.251L451.509 475.764L455.996 471.277L460.483 475.764ZM445.697 481.678L450.184 477.191L454.671 481.678L450.184 486.165L445.697 481.678ZM448.654 487.593L444.167 492.08L439.68 487.593L444.167 483.106L448.654 487.593ZM455.996 483.106L460.483 487.593L455.996 492.08L451.509 487.593L455.996 483.106ZM450.082 474.336L445.595 469.849L450.082 465.362L454.569 469.849L450.082 474.336ZM448.654 475.764L444.167 480.251L439.68 475.764L444.167 471.277L448.654 475.764ZM438.355 474.336L433.868 469.849L438.355 465.362L442.841 469.849L438.355 474.336ZM438.355 477.191L442.841 481.678L438.355 486.165L433.868 481.678L438.355 477.191ZM442.841 493.507L438.355 497.994L433.868 493.507L438.355 489.021L442.841 493.507ZM444.269 494.935L448.756 499.422L444.269 503.909L439.782 499.422L444.269 494.935ZM445.697 493.507L450.184 489.021L454.671 493.507L450.184 497.994L445.697 493.507ZM455.996 494.935L460.483 499.422L455.996 503.909L451.509 499.422L455.996 494.935ZM461.911 500.85L466.398 505.337L463.542 508.192H460.381L457.526 505.337L461.911 500.85ZM457.424 493.507L461.911 489.021L466.398 493.507L461.911 497.994L457.424 493.507ZM457.424 481.678L461.911 477.191L466.398 481.678L461.911 486.165L457.424 481.678ZM460.483 464.037L455.996 468.524L451.509 464.037L455.486 460.06H456.404L460.483 464.037ZM450.082 462.507L447.532 459.958H452.631L450.082 462.507ZM448.654 464.037L444.167 468.524L439.68 464.037L443.657 460.06H444.575L448.654 464.037ZM440.904 459.958L438.355 462.507L435.805 459.958H440.904ZM432.95 459.958L436.927 463.935L432.44 468.422L428.565 464.547L428.463 463.527L431.93 460.06H432.95V459.958ZM429.075 459.958L428.259 460.773L428.157 459.958H429.075ZM428.871 467.708L431.012 469.849L429.177 471.685L428.871 467.708ZM429.993 482.596L429.789 480.455L430.91 481.576L429.993 482.596ZM430.197 485.349L432.44 483.106L436.927 487.593L432.44 492.08L430.604 490.244L430.197 485.349ZM430.91 493.609V493.405V493.609ZM431.726 503.093L431.114 496.261L432.44 494.935L436.927 499.422L432.44 503.909L431.726 503.093ZM432.134 508.192L432.032 507.172L432.44 506.764L433.868 508.192H432.134ZM433.868 505.235L438.355 500.748L442.841 505.235L439.986 508.09H436.723L433.868 505.235ZM442.841 508.192L444.269 506.764L445.697 508.192H442.841ZM448.552 508.192L445.697 505.337L450.184 500.85L454.671 505.337L451.815 508.192H448.552ZM454.569 508.192L455.996 506.764L457.424 508.192H454.569ZM468.131 508.192H466.296L467.723 506.764L468.131 507.172V508.192ZM468.539 503.093L467.723 503.807L463.236 499.32L467.723 494.833L469.049 496.159L468.539 503.093ZM469.355 493.405V493.609L469.253 493.507L469.355 493.405ZM469.661 490.244L467.825 492.08L463.338 487.593L467.825 483.106L470.069 485.349L469.661 490.244ZM470.273 482.698L469.253 481.678L470.375 480.557L470.273 482.698ZM471.394 467.708L471.089 471.787L469.253 469.951L471.394 467.708Z" fill="#6A00F0"/>
<g opacity="0.6">
<path opacity="0.6" d="M469.355 457.918H466.296H457.628H454.467H445.799H442.637H433.97H430.808H425.914L426.321 462.303L426.627 465.464L427.239 473.622L427.647 478.313L428.157 484.534L428.361 487.185L428.463 488.001L428.769 491.162L429.075 495.445L429.279 498.096L429.483 500.85L429.789 504.011L429.993 506.356L430.197 509.008L430.298 510.129H436.009H440.802H447.736H452.529H459.463H464.256H469.967L470.069 509.008L470.273 506.356L470.477 503.909L470.783 500.748L470.987 497.994L471.191 495.343L471.496 491.06L471.802 487.899L471.904 487.083L472.108 484.432L472.618 478.211L473.026 473.52L473.638 465.362L473.944 462.201L474.352 457.816H469.355V457.918ZM472.006 460.875L471.191 460.06H472.108L472.006 460.875ZM471.802 463.527L471.7 464.547L467.825 468.422L463.338 463.935L467.315 459.958H468.233L471.802 463.527ZM470.681 477.395L467.825 480.251L463.338 475.764L467.825 471.277L470.885 474.336L470.681 477.395ZM429.381 474.438L432.44 471.379L436.927 475.866L432.44 480.353L429.585 477.497L429.381 474.438ZM466.398 469.849L461.911 474.336L457.424 469.849L461.911 465.362L466.398 469.849ZM459.361 459.958H464.46L461.911 462.507L459.361 459.958ZM460.483 475.764L455.996 480.251L451.509 475.764L455.996 471.277L460.483 475.764ZM445.697 481.678L450.184 477.191L454.671 481.678L450.184 486.165L445.697 481.678ZM448.654 487.593L444.167 492.08L439.68 487.593L444.167 483.106L448.654 487.593ZM455.996 483.106L460.483 487.593L455.996 492.08L451.509 487.593L455.996 483.106ZM450.082 474.336L445.595 469.849L450.082 465.362L454.569 469.849L450.082 474.336ZM448.654 475.764L444.167 480.251L439.68 475.764L444.167 471.277L448.654 475.764ZM438.355 474.336L433.868 469.849L438.355 465.362L442.841 469.849L438.355 474.336ZM438.355 477.191L442.841 481.678L438.355 486.165L433.868 481.678L438.355 477.191ZM442.841 493.507L438.355 497.994L433.868 493.507L438.355 489.021L442.841 493.507ZM444.269 494.935L448.756 499.422L444.269 503.909L439.782 499.422L444.269 494.935ZM445.697 493.507L450.184 489.021L454.671 493.507L450.184 497.994L445.697 493.507ZM455.996 494.935L460.483 499.422L455.996 503.909L451.509 499.422L455.996 494.935ZM461.911 500.85L466.398 505.337L463.542 508.192H460.381L457.526 505.337L461.911 500.85ZM457.424 493.507L461.911 489.021L466.398 493.507L461.911 497.994L457.424 493.507ZM457.424 481.678L461.911 477.191L466.398 481.678L461.911 486.165L457.424 481.678ZM460.483 464.037L455.996 468.524L451.509 464.037L455.486 460.06H456.404L460.483 464.037ZM450.082 462.507L447.532 459.958H452.631L450.082 462.507ZM448.654 464.037L444.167 468.524L439.68 464.037L443.657 460.06H444.575L448.654 464.037ZM440.904 459.958L438.355 462.507L435.805 459.958H440.904ZM432.95 459.958L436.927 463.935L432.44 468.422L428.565 464.547L428.463 463.527L431.93 460.06H432.95V459.958ZM429.075 459.958L428.259 460.773L428.157 459.958H429.075ZM428.871 467.708L431.012 469.849L429.177 471.685L428.871 467.708ZM429.993 482.596L429.789 480.455L430.91 481.576L429.993 482.596ZM430.197 485.349L432.44 483.106L436.927 487.593L432.44 492.08L430.604 490.244L430.197 485.349ZM430.91 493.609V493.405V493.609ZM431.726 503.093L431.114 496.261L432.44 494.935L436.927 499.422L432.44 503.909L431.726 503.093ZM432.134 508.192L432.032 507.172L432.44 506.764L433.868 508.192H432.134ZM433.868 505.235L438.355 500.748L442.841 505.235L439.986 508.09H436.723L433.868 505.235ZM442.841 508.192L444.269 506.764L445.697 508.192H442.841ZM448.552 508.192L445.697 505.337L450.184 500.85L454.671 505.337L451.815 508.192H448.552ZM454.569 508.192L455.996 506.764L457.424 508.192H454.569ZM468.131 508.192H466.296L467.723 506.764L468.131 507.172V508.192ZM468.539 503.093L467.723 503.807L463.236 499.32L467.723 494.833L469.049 496.159L468.539 503.093ZM469.355 493.405V493.609L469.253 493.507L469.355 493.405ZM469.661 490.244L467.825 492.08L463.338 487.593L467.825 483.106L470.069 485.349L469.661 490.244ZM470.273 482.698L469.253 481.678L470.375 480.557L470.273 482.698ZM471.394 467.708L471.089 471.787L469.253 469.951L471.394 467.708Z" fill="white"/>
</g>
<path d="M424.894 461.793H475.371C476.289 461.793 477.003 461.079 477.003 460.161V457.816C477.003 456.898 476.289 456.184 475.371 456.184H424.894C423.976 456.184 423.262 456.898 423.262 457.816V460.161C423.16 461.079 423.976 461.793 424.894 461.793Z" fill="#6A00F0"/>
<path d="M471.496 512.78H428.769C427.851 512.78 427.137 512.067 427.137 511.149V508.803C427.137 507.886 427.851 507.172 428.769 507.172H471.496C472.414 507.172 473.128 507.886 473.128 508.803V511.149C473.128 512.067 472.414 512.78 471.496 512.78Z" fill="#6A00F0"/>
<path d="M245.621 305.975H258.674L255.207 343.501L275.908 346.663V349.212H232.263V346.663L241.236 343.501L245.621 305.975Z" fill="#263238"/>
<path d="M296.405 329.837C296.609 332.386 294.773 334.426 292.326 334.426H212.989C210.44 334.426 208.298 332.386 207.993 329.837L203.302 279.053C203.2 278.544 203.302 278.034 203.404 277.524C203.812 275.688 205.443 274.465 207.381 274.465H286.717C289.267 274.465 291.408 276.504 291.714 279.053L296.405 329.837Z" fill="#263238"/>
<path d="M212.989 331.774C211.766 331.774 210.644 330.755 210.542 329.531L205.851 278.747C205.851 278.543 205.851 278.339 205.851 278.135C206.055 277.422 206.565 277.014 207.381 277.014H286.717C287.941 277.014 289.063 278.033 289.165 279.257L293.856 330.041C293.856 330.551 293.754 330.959 293.448 331.366C293.244 331.57 292.836 331.876 292.224 331.876H212.989V331.774Z" fill="#6A00F0"/>
<path opacity="0.6" d="M212.989 331.774C211.766 331.774 210.644 330.755 210.542 329.531L205.851 278.747C205.851 278.543 205.851 278.339 205.851 278.135C206.055 277.422 206.565 277.014 207.381 277.014H286.717C287.941 277.014 289.063 278.033 289.165 279.257L293.856 330.041C293.856 330.551 293.754 330.959 293.448 331.366C293.244 331.57 292.836 331.876 292.224 331.876H212.989V331.774Z" fill="white"/>
<path d="M197.387 512.78H191.167L179.949 356.554H188.209L197.387 512.78Z" fill="#263238"/>
<path opacity="0.4" d="M197.387 512.78H191.167L180.459 364.304L179.949 356.758H188.209L188.719 364.304L197.387 512.78Z" fill="white"/>
<path opacity="0.2" d="M188.719 363.896H180.459L179.949 356.758H188.209L188.719 363.896Z" fill="black"/>
<path d="M345.251 512.78H339.031L338.011 356.554H346.271L345.251 512.78Z" fill="#263238"/>
<path opacity="0.5" d="M346.271 356.758L346.067 382.048L345.251 512.78H339.031L338.113 382.048L338.011 356.758H346.271Z" fill="white"/>
<path opacity="0.2" d="M346.271 356.758L346.067 382.252H338.113L338.011 356.758H346.271Z" fill="black"/>
<path d="M411.535 512.78H405.314L394.097 356.554H402.357L411.535 512.78Z" fill="#263238"/>
<path opacity="0.5" d="M411.535 512.78H405.315L394.607 364.304L394.097 356.758H402.357L402.867 364.304L411.535 512.78Z" fill="white"/>
<path opacity="0.2" d="M402.867 363.896H394.607L394.097 356.758H402.357L402.867 363.896Z" fill="black"/>
<path d="M126.005 512.78H119.682L128.86 356.554H137.222L126.005 512.78Z" fill="#263238"/>
<path opacity="0.5" d="M137.222 356.758L136.61 364.304L126.005 512.78H119.682L128.452 364.304L128.86 356.758H137.222Z" fill="white"/>
<path opacity="0.2" d="M128.86 356.758H137.222L136.61 363.897H128.452L128.86 356.758Z" fill="black"/>
<path d="M406.742 360.429H124.577C123.353 360.429 122.333 359.409 122.333 358.186V352.577H408.986V358.186C408.986 359.511 407.966 360.429 406.742 360.429Z" fill="#545454"/>
<path opacity="0.6" d="M406.742 360.429H124.577C123.353 360.429 122.333 359.409 122.333 358.186V352.577H408.986V358.186C408.986 359.511 407.966 360.429 406.742 360.429Z" fill="white"/>
<path opacity="0.2" d="M408.986 352.577H122.333V356.452H408.986V352.577Z" fill="black"/>
<path d="M412.861 353.597H118.458C117.235 353.597 116.215 352.578 116.215 351.354C116.215 350.13 117.235 349.11 118.458 349.11H412.861C414.084 349.11 415.104 350.13 415.104 351.354C415.002 352.679 414.084 353.597 412.861 353.597Z" fill="#545454"/>
<path opacity="0.6" d="M412.861 353.597H118.458C117.235 353.597 116.215 352.578 116.215 351.354C116.215 350.13 117.235 349.11 118.458 349.11H412.861C414.084 349.11 415.104 350.13 415.104 351.354C415.002 352.679 414.084 353.597 412.861 353.597Z" fill="white"/>
<path d="M258.572 349.212L259.592 345.439H300.892L319.961 347.377L320.675 349.212H258.572Z" fill="#263238"/>
<path opacity="0.4" d="M300.892 345.439V349.212H258.572L259.592 345.439H300.892Z" fill="black"/>
<path d="M157.923 305.975H170.976L157.311 343.501L178.012 346.663V349.212H134.366V346.663L143.34 343.501L157.923 305.975Z" fill="#263238"/>
<path d="M196.265 278.442C195.858 275.892 193.41 273.853 190.861 273.853H188.821H121.722H119.682C117.643 273.853 116.215 275.178 115.909 276.912C115.807 277.422 115.807 277.83 115.909 278.442L124.985 329.735C125.393 332.285 127.84 334.324 130.389 334.324H132.429H199.529H201.568C204.118 334.324 205.749 332.285 205.341 329.735L196.265 278.442Z" fill="#263238"/>
<path opacity="0.2" d="M205.239 329.735C205.647 332.284 204.016 334.324 201.466 334.324H132.429C129.88 334.324 127.534 332.284 127.024 329.735L117.948 278.441C117.847 277.932 117.847 277.422 117.948 276.912C118.254 275.076 119.682 273.853 121.722 273.853H190.861C193.41 273.853 195.756 275.892 196.265 278.441L205.239 329.735Z" fill="white"/>
<path d="M132.225 331.774C131.001 331.774 129.778 330.755 129.574 329.531L120.6 278.237C120.6 278.034 120.6 277.83 120.6 277.626C120.702 276.912 121.314 276.504 122.027 276.504H191.167C192.39 276.504 193.614 277.524 193.818 278.747L202.894 330.041C202.996 330.551 202.894 330.959 202.588 331.367C202.384 331.57 202.078 331.876 201.466 331.876H132.225V331.774Z" fill="#6A00F0"/>
<path opacity="0.6" d="M132.225 331.774C131.001 331.774 129.778 330.755 129.574 329.531L120.6 278.237C120.6 278.034 120.6 277.83 120.6 277.626C120.702 276.912 121.314 276.504 122.027 276.504H191.167C192.39 276.504 193.614 277.524 193.818 278.747L202.894 330.041C202.996 330.551 202.894 330.959 202.588 331.367C202.384 331.57 202.078 331.876 201.466 331.876H132.225V331.774Z" fill="#6A00F0"/>
<path d="M329.241 305.975H342.294L328.629 343.501L349.33 346.663V349.212H305.685V346.663L314.659 343.501L329.241 305.975Z" fill="#263238"/>
<path d="M375.13 279.054C375.028 276.504 372.886 274.465 370.439 274.465H368.399H301.3H299.26C297.221 274.465 295.589 275.791 295.079 277.524C294.977 278.034 294.875 278.442 294.875 279.054L296.915 329.837C297.017 332.387 299.158 334.426 301.606 334.426H303.645H370.745H372.784C375.334 334.426 377.271 332.387 377.169 329.837L375.13 279.054Z" fill="#263238"/>
<path opacity="0.4" d="M377.169 329.837C377.271 332.386 375.334 334.426 372.784 334.426H303.645C301.096 334.426 299.056 332.386 298.954 329.837L296.915 279.053C296.915 278.544 296.915 278.034 297.119 277.524C297.629 275.688 299.26 274.465 301.3 274.465H370.439C372.988 274.465 375.028 276.504 375.13 279.053L377.169 329.837Z" fill="white"/>
<path d="M303.849 331.774C302.625 331.774 301.606 330.755 301.504 329.531L299.464 278.747C299.464 278.543 299.464 278.339 299.566 278.135C299.77 277.422 300.382 277.014 301.198 277.014H370.337C371.561 277.014 372.58 278.033 372.682 279.257L374.722 330.041C374.722 330.551 374.62 330.959 374.314 331.366C374.11 331.57 373.702 331.876 373.09 331.876H303.849V331.774Z" fill="#6A00F0"/>
<path opacity="0.6" d="M303.849 331.774C302.625 331.774 301.606 330.755 301.504 329.531L299.464 278.747C299.464 278.543 299.464 278.339 299.566 278.135C299.77 277.422 300.382 277.014 301.198 277.014H370.337C371.561 277.014 372.58 278.033 372.682 279.257L374.722 330.041C374.722 330.551 374.62 330.959 374.314 331.366C374.11 331.57 373.702 331.876 373.09 331.876H303.849V331.774Z" fill="#6A00F0"/>
<path opacity="0.4" d="M303.849 331.774C302.626 331.774 301.606 330.755 301.504 329.531L299.464 278.747C299.464 278.543 299.464 278.339 299.566 278.135C299.77 277.422 300.382 277.014 301.198 277.014H370.337C371.561 277.014 372.581 278.033 372.682 279.257L374.722 330.041C374.722 330.551 374.62 330.959 374.314 331.366C374.11 331.57 373.702 331.876 373.09 331.876H303.849V331.774Z" fill="black"/>
<path d="M366.768 282.418H316.086L315.984 281.5H366.768V282.418Z" fill="white"/>
<path d="M366.972 285.274H321.797V284.356H366.87L366.972 285.274Z" fill="white"/>
<path d="M367.074 288.231H338.521V287.313H367.074V288.231Z" fill="white"/>
<path d="M367.176 291.086H330.159L330.057 290.168H367.176V291.086Z" fill="white"/>
<path d="M367.38 294.043H342.702V293.024H367.278L367.38 294.043Z" fill="white"/>
<path d="M367.686 302.813H317.004L316.902 301.896H367.686V302.813Z" fill="white"/>
<path d="M367.89 305.771H322.715L322.613 304.853H367.788L367.89 305.771Z" fill="white"/>
<path d="M367.992 308.626H339.439V307.708H367.89L367.992 308.626Z" fill="white"/>
<path d="M368.094 311.583H331.077L330.975 310.563H368.094V311.583Z" fill="white"/>
<path d="M368.195 314.438H343.62V313.521H368.195V314.438Z" fill="white"/>
<path d="M257.349 313.215H213.091L210.542 284.254H254.799L257.349 313.215Z" fill="#6A00F0"/>
<path d="M257.349 313.215H213.091L210.542 284.254H254.799L257.349 313.215Z" fill="#6A00F0"/>
<path d="M255.615 311.787H214.621L212.581 289.659H253.677L255.615 311.787Z" fill="#263238"/>
<path d="M246.743 293.941H216.355L216.253 293.024H246.641L246.743 293.941Z" fill="white"/>
<path d="M231.141 296.899H216.66L216.559 295.879H231.141V296.899Z" fill="white"/>
<path d="M235.22 299.754H216.864L216.762 298.836H235.118L235.22 299.754Z" fill="white"/>
<path d="M223.595 302.712H217.17L217.068 301.692H223.493L223.595 302.712Z" fill="white"/>
<path d="M221.555 305.567H217.374L217.272 304.649H221.453L221.555 305.567Z" fill="white"/>
<path d="M286.615 327.695H242.358L239.809 298.734H284.066L286.615 327.695Z" fill="#6A00F0"/>
<path d="M286.615 327.695H242.358L239.809 298.734H284.066L286.615 327.695Z" fill="#6A00F0"/>
<path d="M284.882 326.268H243.888L241.848 304.139H282.944L284.882 326.268Z" fill="#263238"/>
<path d="M275.908 308.422H245.621L245.519 307.504H275.908V308.422Z" fill="white"/>
<path d="M260.408 311.379H245.825L245.723 310.36H260.306L260.408 311.379Z" fill="white"/>
<path d="M264.487 314.234H246.131L246.029 313.317H264.385L264.487 314.234Z" fill="white"/>
<path d="M252.862 317.192H246.335V316.172H252.76L252.862 317.192Z" fill="white"/>
<path d="M250.822 320.047H246.641L246.539 319.129H250.72L250.822 320.047Z" fill="white"/>
<path opacity="0.6" d="M200.446 326.268H131.511L123.455 281.297H192.39L200.446 326.268Z" fill="white"/>
<path opacity="0.6" d="M150.479 324.534H132.531L125.903 287.415H143.85L150.479 324.534Z" fill="white"/>
<path opacity="0.6" d="M152.11 324.534H198.713L192.084 287.415H145.482L152.11 324.534Z" fill="white"/>
<g opacity="0.4">
<path opacity="0.4" d="M142.117 291.188H129.064L128.86 290.271H141.913L142.117 291.188Z" fill="black"/>
<path opacity="0.4" d="M137.018 294.044H129.574L129.37 293.126H136.814L137.018 294.044Z" fill="black"/>
<path opacity="0.4" d="M140.281 296.797H130.084L129.88 295.879H140.077L140.281 296.797Z" fill="black"/>
<path opacity="0.4" d="M137.018 299.652H130.593L130.389 298.735H136.916L137.018 299.652Z" fill="black"/>
<path opacity="0.4" d="M135.284 302.406H131.103L130.899 301.488H135.08L135.284 302.406Z" fill="black"/>
<path opacity="0.4" d="M144.564 305.261H131.613L131.409 304.343H144.462L144.564 305.261Z" fill="black"/>
<path opacity="0.4" d="M139.465 308.014H132.123L131.919 307.096H139.363L139.465 308.014Z" fill="black"/>
<path opacity="0.4" d="M142.728 310.869H132.531L132.429 309.85H142.626L142.728 310.869Z" fill="black"/>
<path opacity="0.4" d="M139.567 313.623H133.041L132.939 312.705H139.363L139.567 313.623Z" fill="black"/>
<path opacity="0.4" d="M137.732 316.478H133.551L133.449 315.458H137.63L137.732 316.478Z" fill="black"/>
<path opacity="0.4" d="M140.587 319.231H134.061L133.959 318.314H140.383L140.587 319.231Z" fill="black"/>
<path opacity="0.4" d="M138.751 321.985H134.57L134.468 321.067H138.649L138.751 321.985Z" fill="black"/>
</g>
<g opacity="0.4">
<path opacity="0.4" d="M182.907 291.188H149.459L149.255 290.271H182.703L182.907 291.188Z" fill="black"/>
<path opacity="0.4" d="M177.808 294.044H149.969L149.765 293.126H177.604L177.808 294.044Z" fill="black"/>
<path opacity="0.4" d="M181.071 296.797H150.479L150.275 295.879H180.867L181.071 296.797Z" fill="black"/>
<path opacity="0.4" d="M177.808 299.652H150.988L150.785 298.735H177.706L177.808 299.652Z" fill="black"/>
<path opacity="0.4" d="M176.074 302.406H151.498L151.294 301.488H175.87L176.074 302.406Z" fill="black"/>
<path opacity="0.4" d="M185.354 305.261H152.008L151.804 304.343H185.252L185.354 305.261Z" fill="black"/>
<path opacity="0.4" d="M180.255 308.014H152.518L152.314 307.096H180.153L180.255 308.014Z" fill="black"/>
<path opacity="0.4" d="M183.519 310.869H152.926L152.824 309.85H183.417L183.519 310.869Z" fill="black"/>
<path opacity="0.4" d="M180.357 313.623H153.436L153.334 312.705H180.153L180.357 313.623Z" fill="black"/>
<path opacity="0.4" d="M178.522 316.478H153.946L153.844 315.458H178.42L178.522 316.478Z" fill="black"/>
<path opacity="0.4" d="M181.377 319.231H154.456L154.354 318.314H181.173L181.377 319.231Z" fill="black"/>
<path opacity="0.4" d="M179.541 321.985H154.965L154.863 321.067H179.44L179.541 321.985Z" fill="black"/>
</g>
<path d="M329.445 244.586H360.14C361.873 244.586 363.199 243.158 363.199 241.526V210.832C363.199 209.098 361.771 207.773 360.14 207.773H329.445C327.712 207.773 326.386 209.2 326.386 210.832V241.526C326.386 243.158 327.712 244.586 329.445 244.586Z" fill="#D9D9D9"/>
<path d="M349.024 241.322C349.024 241.322 347.189 251.724 333.422 256.415C333.422 256.415 341.172 248.868 341.172 241.322H349.024Z" fill="#D9D9D9"/>
<path opacity="0.9" d="M346.883 222.151V219.908L345.761 219.806C345.557 219.092 345.353 218.378 344.945 217.766L345.659 216.848L344.13 215.319L343.212 216.033C342.6 215.625 341.886 215.319 341.172 215.217L341.07 214.095H338.827L338.725 215.217C338.011 215.421 337.297 215.625 336.685 216.033L335.768 215.319L334.238 216.848L334.952 217.766C334.544 218.378 334.238 219.092 334.136 219.806L333.014 219.908V222.151L334.136 222.253C334.34 222.967 334.544 223.681 334.952 224.292L334.238 225.21L335.768 226.74L336.685 226.026C337.297 226.434 338.011 226.74 338.725 226.842L338.827 227.964H341.07L341.172 226.842C341.886 226.638 342.6 226.434 343.212 226.026L344.13 226.74L345.659 225.21L344.945 224.292C345.353 223.681 345.659 222.967 345.761 222.253L346.883 222.151ZM339.847 224.089C338.215 224.089 336.787 222.763 336.787 221.029C336.787 219.296 338.113 217.97 339.847 217.97C341.478 217.97 342.906 219.296 342.906 221.029C342.906 222.763 341.478 224.089 339.847 224.089Z" fill="white"/>
<path opacity="0.6" d="M355.857 228.474V226.74L354.939 226.638C354.837 226.026 354.633 225.516 354.225 225.007L354.837 224.293L353.613 223.069L352.899 223.681C352.39 223.375 351.88 223.171 351.268 222.967L351.166 222.049H349.432L349.33 222.967C348.718 223.069 348.209 223.273 347.699 223.681L346.985 223.069L345.761 224.293L346.373 225.007C346.067 225.516 345.863 226.026 345.659 226.638L344.741 226.74V228.474L345.659 228.576C345.761 229.188 345.965 229.697 346.373 230.207L345.761 230.921L346.985 232.145L347.699 231.533C348.209 231.839 348.718 232.043 349.33 232.247L349.432 233.165H351.166L351.268 232.247C351.88 232.145 352.39 231.941 352.899 231.533L353.613 232.145L354.837 230.921L354.225 230.207C354.531 229.697 354.735 229.188 354.939 228.576L355.857 228.474ZM350.35 230.003C349.024 230.003 348.005 228.984 348.005 227.658C348.005 226.332 349.024 225.313 350.35 225.313C351.676 225.313 352.695 226.332 352.695 227.658C352.797 228.882 351.676 230.003 350.35 230.003Z" fill="white"/>
<path opacity="0.4" d="M346.883 233.47V232.043L346.169 231.941C346.067 231.431 345.863 231.023 345.557 230.615L346.067 230.003L345.047 228.984L344.435 229.493C344.028 229.187 343.62 228.984 343.11 228.882L343.008 228.168H341.58L341.478 228.882C340.968 228.984 340.56 229.187 340.152 229.493L339.541 228.984L338.521 230.003L339.031 230.615C338.725 231.023 338.521 231.431 338.419 231.941L337.705 232.043V233.47L338.419 233.572C338.521 234.082 338.725 234.49 339.031 234.898L338.521 235.51L339.541 236.53L340.152 236.02C340.56 236.326 340.968 236.53 341.478 236.632L341.58 237.345H343.008L343.11 236.632C343.62 236.53 344.028 236.326 344.435 236.02L345.047 236.53L346.067 235.51L345.557 234.898C345.863 234.49 346.067 234.082 346.169 233.572L346.883 233.47ZM342.192 234.694C341.07 234.694 340.152 233.776 340.152 232.655C340.152 231.533 341.07 230.615 342.192 230.615C343.314 230.615 344.231 231.533 344.231 232.655C344.231 233.878 343.314 234.694 342.192 234.694Z" fill="white"/>
<path d="M337.909 501.767L329.751 500.747L328.629 481.372L336.685 482.494L337.909 501.767Z" fill="#EBB376"/>
<path opacity="0.2" d="M336.685 482.494L328.629 481.372L329.241 492.487L337.399 493.099L336.685 482.494Z" fill="black"/>
<path d="M329.139 499.728L338.317 499.116C338.623 499.116 338.929 499.32 338.929 499.626L339.846 506.866C339.846 507.682 339.337 508.294 338.521 508.396C335.359 508.498 333.728 508.498 329.751 508.702C327.303 508.803 322.409 509.415 318.941 509.007C315.474 508.701 315.984 505.336 317.412 505.132C320.879 504.724 325.57 502.175 327.711 500.238C328.119 499.932 328.629 499.728 329.139 499.728Z" fill="#263238"/>
<path d="M328.935 500.747C328.935 500.646 328.833 498.3 327.915 497.586C327.711 497.382 327.303 497.28 326.997 497.382C326.692 497.382 326.386 497.688 326.284 497.994C326.182 498.504 326.59 499.218 327.099 499.83C326.284 499.524 325.366 499.218 324.856 499.422C324.652 499.524 324.448 499.728 324.448 500.034C324.346 500.442 324.448 500.849 324.754 501.053C325.264 501.359 325.774 501.461 326.284 501.359C326.998 501.257 327.711 501.155 328.425 500.951C328.425 500.951 328.425 500.951 328.527 500.951C328.527 500.951 328.527 500.951 328.527 500.849C328.527 500.849 328.731 500.849 328.731 500.747H328.935ZM326.692 497.994C326.692 497.892 326.794 497.79 326.997 497.688H327.099C327.303 497.688 327.405 497.688 327.507 497.79C328.017 498.198 328.119 499.524 328.221 500.34C328.119 500.34 328.119 500.238 328.017 500.238C327.405 499.626 326.59 498.504 326.692 497.994ZM324.958 500.747C324.754 500.544 324.754 500.34 324.754 500.034C324.754 499.932 324.856 499.83 324.958 499.728C325.468 499.524 326.896 500.136 327.915 500.646C326.488 501.053 325.366 501.053 324.958 500.747Z" fill="#6A00F0"/>
<path d="M337.501 388.269L339.438 375.828L385.021 373.074C385.021 373.074 389.814 398.874 386.143 405.808C379.515 418.147 343.721 411.927 333.218 413.151C339.438 438.746 338.827 488.816 338.827 488.816L323.836 489.938C323.836 489.938 312.313 435.993 309.968 410.397C308.54 393.164 322.918 393.571 337.501 388.269Z" fill="#263238"/>
<path opacity="0.2" d="M337.501 388.269L339.438 375.828L385.021 373.074C385.021 373.074 389.814 398.874 386.143 405.808C379.515 418.147 343.721 411.927 333.218 413.151C339.438 438.746 338.827 488.816 338.827 488.816L323.836 489.938C323.836 489.938 312.313 435.993 309.968 410.397C308.54 393.164 322.918 393.571 337.501 388.269Z" fill="black"/>
<path d="M304.257 283.03C304.461 284.968 303.645 286.599 302.421 286.701C301.198 286.803 300.076 285.376 299.872 283.438C299.668 281.501 300.484 279.869 301.708 279.767C302.829 279.767 304.053 281.195 304.257 283.03Z" stroke="#263238" stroke-width="0.5" stroke-miterlimit="10"/>
<path d="M304.257 292.922C304.461 293.33 304.665 293.738 304.869 294.146C306.195 296.593 308.234 298.429 310.579 299.55C311.191 299.856 311.803 300.06 312.415 300.264C315.78 301.386 319.553 300.978 322.613 299.04C323.836 298.225 325.06 297.103 326.08 295.675C329.955 290.169 328.935 284.662 327.915 275.28C327.711 273.241 327.099 271.303 325.978 269.57C322.205 263.553 314.251 261.718 308.234 265.491C299.77 270.895 300.79 284.968 304.257 292.922Z" fill="#E4897B"/>
<path opacity="0.2" d="M310.579 299.652C311.191 299.958 311.803 300.162 312.415 300.366C315.78 301.488 319.553 301.08 322.613 299.142C321.695 297.409 320.471 296.287 320.471 296.287C320.471 296.287 314.862 296.287 310.579 299.652Z" fill="black"/>
<path d="M335.155 302.1C333.524 308.116 323.122 313.011 323.122 313.011C323.122 313.011 316.086 315.255 316.188 312.603C319.349 309.748 319.961 306.995 319.349 304.445C318.941 302.916 318.126 301.59 317.106 300.162C316.596 299.449 315.984 298.735 315.372 298.123L321.491 281.807C323.632 288.537 328.629 300.366 335.155 302.1Z" fill="#E4897B"/>
<path d="M305.583 272.425C305.583 272.425 302.931 281.297 312.007 287.619C312.007 287.619 315.78 295.777 317.922 296.797C320.063 297.817 324.856 297.205 326.488 296.797C328.119 296.389 336.481 289.455 334.034 273.037C331.586 256.721 317.922 261.82 317.922 261.82L305.583 272.425Z" fill="#263238"/>
<path d="M313.231 283.438C313.027 285.58 312.109 287.211 310.885 288.129C309.152 289.251 307.418 286.804 307.214 283.948C307.01 281.399 307.724 277.728 309.866 277.83C312.007 277.932 313.537 280.787 313.231 283.438Z" fill="#E4897B"/>
<path d="M323.632 261.208C323.632 261.208 313.537 258.455 305.685 262.636C305.685 262.636 307.214 261.616 306.806 260.29C306.297 259.066 302.727 263.655 302.727 263.655C302.727 263.655 303.951 259.27 303.237 258.862C302.523 258.455 297.833 265.389 300.178 268.754C300.178 268.754 295.691 265.695 296.507 268.04C297.323 270.488 297.323 274.567 307.622 272.527C317.922 270.488 323.632 261.208 323.632 261.208Z" fill="#263238"/>
<path d="M299.77 283.54L307.214 280.481" stroke="#263238" stroke-width="0.5" stroke-miterlimit="10"/>
<path d="M315.066 305.669C315.066 305.669 321.899 297.205 332.81 297.307L339.438 302.916L315.066 305.669Z" fill="#202020"/>
<path opacity="0.5" d="M315.066 305.669C315.066 305.669 321.899 297.205 332.81 297.307L339.438 302.916L315.066 305.669Z" fill="#010002"/>
<path d="M273.868 340.646L266.424 337.281C266.424 337.281 260.204 336.159 257.654 336.669C255.105 337.281 249.496 344.929 249.598 345.847C249.7 346.765 259.388 349.11 259.592 349.11C259.796 349.11 263.977 346.765 263.977 346.765L270.809 349.11L273.868 340.646Z" fill="#E4897B"/>
<path d="M340.662 489.531L322.715 490.754L321.185 483.004L340.866 482.086L340.662 489.531Z" fill="#0D0D0D"/>
<path d="M319.145 501.767L310.987 502.379L305.787 483.718L313.945 483.106L319.145 501.767Z" fill="#EBB376"/>
<path opacity="0.2" d="M313.945 483.106L305.787 483.718L308.744 494.323L316.8 493.405L313.945 483.106Z" fill="black"/>
<path d="M303.033 492.998L317.412 488.817C317.412 488.817 308.846 440.276 300.076 423.451C300.688 423.247 301.606 422.941 302.625 422.635C304.563 422.023 307.112 421.309 310.172 420.493C331.076 414.681 373.498 403.769 373.498 403.769L354.123 385.72C354.123 385.72 276.928 397.447 275.296 417.842C274.684 427.632 303.033 492.998 303.033 492.998Z" fill="#263238"/>
<path d="M319.349 489.122L302.014 494.017L298.852 486.777L318.024 481.78L319.349 489.122Z" fill="#0D0D0D"/>
<path d="M310.172 501.563L319.043 499.116C319.349 499.014 319.655 499.218 319.757 499.524L322.103 506.458C322.307 507.172 321.899 507.988 321.083 508.192C318.024 509.007 316.494 509.211 312.517 510.333C310.172 510.945 305.481 512.577 302.014 512.883C298.648 513.29 298.342 509.925 299.668 509.415C303.033 508.294 307.01 504.826 308.744 502.481C309.254 501.971 309.662 501.665 310.172 501.563Z" fill="#263238"/>
<path d="M304.461 313.929C304.461 313.929 317.31 299.448 334.544 300.978C351.777 302.508 369.011 315.764 377.577 336.669C386.143 357.574 388.794 389.186 388.794 389.186C388.794 389.186 360.955 397.141 332.606 389.9C332.606 389.9 325.264 352.373 304.461 313.929Z" fill="#202020"/>
<path opacity="0.6" d="M304.461 313.929C304.461 313.929 317.31 299.448 334.544 300.978C351.777 302.508 369.011 315.764 377.577 336.669C386.143 357.574 388.794 389.186 388.794 389.186C388.794 389.186 360.955 397.141 332.606 389.9C332.606 389.9 325.264 352.373 304.461 313.929Z" fill="black"/>
<path d="M304.461 313.929C300.076 318.416 287.635 339.117 284.168 339.932C280.497 340.748 275.5 337.485 271.421 338.709C267.342 339.932 263.263 343.603 264.181 345.949C265.099 348.294 274.582 354.617 286.309 354.923C296.405 355.229 317.616 330.143 317.616 330.143C317.616 320.455 304.461 313.929 304.461 313.929Z" fill="#202020"/>
<path opacity="0.5" d="M304.461 313.929C300.076 318.416 287.635 339.117 284.168 339.932C280.497 340.748 275.5 337.485 271.421 338.709C267.342 339.932 263.263 343.603 264.181 345.949C265.099 348.294 274.582 354.617 286.309 354.923C296.405 355.229 317.616 330.143 317.616 330.143C317.616 320.455 304.461 313.929 304.461 313.929Z" fill="black"/>
<path d="M314.658 409.275H396.137C398.992 409.275 401.235 411.519 401.235 414.374V421.206H309.56V414.374C309.56 411.519 311.803 409.275 314.658 409.275Z" fill="#6A00F0"/>
<path opacity="0.2" d="M314.658 409.275H396.137C398.992 409.275 401.235 411.519 401.235 414.374V421.206H309.56V414.374C309.56 411.519 311.803 409.275 314.658 409.275Z" fill="black"/>
<path d="M398.278 489.02L368.909 486.164V444.865H357.182V486.164L327.711 489.02C324.754 489.326 322.511 491.773 322.511 494.73V499.115H361.873H364.014H403.377V494.73C403.377 491.773 401.133 489.326 398.278 489.02Z" fill="#263238"/>
<path opacity="0.2" d="M398.278 489.02L368.909 486.164V444.865H357.182V486.164L327.711 489.02C324.754 489.326 322.511 491.773 322.511 494.73V499.115H361.873H364.014H403.377V494.73C403.377 491.773 401.133 489.326 398.278 489.02Z" fill="white"/>
<path d="M325.672 512.27C329.896 512.27 333.32 508.846 333.32 504.622C333.32 500.398 329.896 496.974 325.672 496.974C321.448 496.974 318.024 500.398 318.024 504.622C318.024 508.846 321.448 512.27 325.672 512.27Z" fill="#263238"/>
<path d="M400.318 512.27C404.542 512.27 407.966 508.846 407.966 504.622C407.966 500.398 404.542 496.974 400.318 496.974C396.094 496.974 392.669 500.398 392.669 504.622C392.669 508.846 396.094 512.27 400.318 512.27Z" fill="#263238"/>
<path d="M366.666 453.736H359.426C357.08 453.736 355.245 451.799 355.245 449.555V416.923H370.949V449.555C370.847 451.901 369.011 453.736 366.666 453.736Z" fill="#263238"/>
<path opacity="0.3" d="M366.666 453.736H359.426C357.08 453.736 355.245 451.799 355.245 449.555V416.923H370.949V449.555C370.847 451.901 369.011 453.736 366.666 453.736Z" fill="white"/>
<path d="M345.557 416.924C345.557 416.924 360.139 370.321 362.689 302.406C362.995 294.248 369.725 287.925 377.781 287.925H404.906C413.268 287.925 419.999 294.655 419.999 303.017C420.101 327.695 418.367 378.173 404.499 419.269L345.557 416.924Z" fill="#6A00F0"/>
<path opacity="0.2" d="M345.557 416.924C345.557 416.924 360.139 370.321 362.689 302.406C362.995 294.248 369.725 287.925 377.781 287.925H404.906C413.268 287.925 419.999 294.655 419.999 303.017C420.101 327.695 418.367 378.173 404.499 419.269L345.557 416.924Z" fill="black"/>
<path d="M354.837 416.414C354.837 416.414 368.705 366.854 371.051 304.241C371.357 296.797 377.475 290.882 385.021 290.882H410.005C417.653 290.882 423.976 297.103 423.976 304.751C424.078 327.491 422.446 378.683 409.597 416.516H354.837V416.414Z" fill="#263238"/>
<path opacity="0.3" d="M409.597 416.414H354.837C354.837 416.414 368.705 366.854 371.051 304.241C371.357 296.797 377.475 290.882 385.021 290.882H410.005C417.653 290.882 423.976 297.103 423.976 304.751C424.078 327.389 422.446 378.479 409.597 416.414Z" fill="white"/>
<path d="M365.544 380.416C365.544 380.416 335.869 374.4 307.112 377.357C278.457 380.314 320.573 417.739 320.573 417.739H326.488C326.488 417.739 304.155 393.979 305.379 388.065C306.602 382.15 362.893 389.9 362.893 389.9L365.544 380.416Z" fill="#263238"/>
<path opacity="0.3" d="M365.544 380.416C365.544 380.416 335.869 374.4 307.112 377.357C278.457 380.314 320.573 417.739 320.573 417.739H326.488C326.488 417.739 304.155 393.979 305.379 388.065C306.602 382.15 362.893 389.9 362.893 389.9L365.544 380.416Z" fill="white"/>
<path opacity="0.2" d="M409.597 416.414H360.955C360.955 416.414 374.824 366.854 377.169 304.241C377.475 296.797 383.594 290.882 391.14 290.882H410.005C417.653 290.882 423.976 297.103 423.976 304.751C424.078 327.389 422.446 378.479 409.597 416.414Z" fill="black"/>
<path d="M308.336 415.19H408.578C409.699 415.19 410.617 416.108 410.617 417.23V419.065C410.617 420.187 409.699 421.105 408.578 421.105H308.336C307.214 421.105 306.296 420.187 306.296 419.065V417.23C306.296 416.108 307.214 415.19 308.336 415.19Z" fill="#263238"/>
<path opacity="0.6" d="M308.336 415.19H408.578C409.699 415.19 410.617 416.108 410.617 417.23V419.065C410.617 420.187 409.699 421.105 408.578 421.105H308.336C307.214 421.105 306.296 420.187 306.296 419.065V417.23C306.296 416.108 307.214 415.19 308.336 415.19Z" fill="white"/>
<ellipse cx="309.727" cy="281.694" rx="6.09675" ry="7.17265" fill="#404040"/>
<ellipse cx="311.162" cy="280.977" rx="6.09675" ry="7.17265" fill="#404040"/>
<path d="M322.765 260.96C313.584 259.526 309.608 269.262 309.727 274.522H311.162H312.238C311.951 264.767 319.418 261.762 322.765 261.523L322.765 261.468C322.765 261.426 322.765 261.4 322.765 260.96Z" fill="#404040"/>
<ellipse cx="309.727" cy="281.694" rx="3.94496" ry="5.02085" fill="#5C5C5C"/>
<rect x="180" y="88" width="136" height="53" fill="#C4C4C4"/>
<rect x="378" y="27" width="136" height="53" fill="#C4C4C4"/>
<rect x="378" y="133" width="136" height="53" fill="#C4C4C4"/>
<rect x="126" width="136" height="53" fill="#C4C4C4"/>
<rect y="141" width="136" height="53" fill="#C4C4C4"/>
</svg>
